<?xml version="1.0" encoding="utf-8"?><svg xmlns="http://www.w3.org/2000/svg" data-name="Layer 1" id="Layer_1" viewBox="0 0 185.8974 243.25596" xmlns:openbadges="http://openbadges.org"><openbadges:assertion verify="https://api.badgr.io/public/assertions/NvZNUewSRUOzUSF1M5d8ww"><![CDATA[{
  "@context": "https://w3id.org/openbadges/v2",
  "type": "Assertion",
  "id": "https://api.badgr.io/public/assertions/NvZNUewSRUOzUSF1M5d8ww",
  "badge": "https://api.badgr.io/public/badges/_iub8SRfTnOye29DymPA6A",
  "image": "https://api.badgr.io/public/assertions/NvZNUewSRUOzUSF1M5d8ww/image",
  "verification": {
    "type": "HostedBadge"
  },
  "issuedOn": "2022-06-30T20:19:57.254774+00:00",
  "expires": "2024-06-30T20:19:56.637000+00:00",
  "recipient": {
    "hashed": true,
    "type": "email",
    "identity": "sha256$2160d68f04d531f0cb6f7356df6da14ad3355e7f7e82380a8cb364d49129a297",
    "salt": "864d6dc8834f4a36b66febd63060dda3"
  }
}]]></openbadges:assertion><defs><style>.cls-1{fill:#ffc329;}.cls-2,.cls-3{fill:#ff7a00;}.cls-2{fill-rule:evenodd;}.cls-4{fill:#1e415e;}.cls-5,.cls-7{fill:#0a2535;}.cls-6{fill:#fff;}.cls-7{opacity:0.25;}.cls-8{fill:url(#linear-gradient);}.cls-9{fill:url(#linear-gradient-2);}.cls-10{fill:#03151e;}</style><linearGradient gradientUnits="userSpaceOnUse" id="linear-gradient" x1="56.62669" x2="110.14318" y1="79.31192" y2="79.31192"><stop offset="0" stop-color="#5a9fd4"/><stop offset="1" stop-color="#306998"/></linearGradient><linearGradient gradientUnits="userSpaceOnUse" id="linear-gradient-2" x1="75.29065" x2="128.91626" y1="98.15525" y2="98.15525"><stop offset="0" stop-color="#ffd43b"/><stop offset="1" stop-color="#ffe873"/></linearGradient></defs><path class="cls-1" d="M54.24839,123.62918a4.72831,4.72831,0,0,1,6.45289-1.7278l44.46091,25.69152a4.72892,4.72892,0,0,1,1.7278,6.45652L59.96651,235.41619a4.72881,4.72881,0,0,1-8.55535-.82207l-8.428-24.37111a4.72865,4.72865,0,0,0-5.358-3.09912L12.301,211.9981a4.72873,4.72873,0,0,1-4.987-6.99487Z"/><path class="cls-1" d="M79.25607,153.99485a4.72832,4.72832,0,0,1,1.73143-6.4638l44.48275-25.63332a4.72872,4.72872,0,0,1,6.46016,1.72781l47.01079,81.32312a4.729,4.729,0,0,1-4.987,6.99489l-25.33506-4.89241a4.72884,4.72884,0,0,0-5.36528,3.09185l-8.42077,24.37112a4.72881,4.72881,0,0,1-8.56263.81479Z"/><path class="cls-2" d="M81.60224,197.88468a31.78127,31.78127,0,0,1-4.33224-2.077L28.76792,167.79909,54.2302,123.62918a4.72832,4.72832,0,0,1,6.4529-1.7278L105.144,147.5929a4.72892,4.72892,0,0,1,1.7278,6.45652Z"/><path class="cls-2" d="M157.41822,167.71907l-48.64037,28.0886a31.28255,31.28255,0,0,1-4.17946,2.01882L79.25607,153.99485a4.72832,4.72832,0,0,1,1.73143-6.4638l44.48275-25.63332a4.72872,4.72872,0,0,1,6.46016,1.72781Z"/><path class="cls-3" d="M93.12033,191.18887A44.79823,44.79823,0,0,1,70.72,185.17762L29.98093,161.62138A44.87193,44.87193,0,0,1,7.6234,122.87832V75.509A44.86476,44.86476,0,0,1,30.00029,36.7395L70.91554,13.11861a44.68078,44.68078,0,0,1,44.98025.15808l14.908,8.722c.87491-.53657,1.763-1.08485,2.68069-1.655a21.87836,21.87836,0,0,1,11.94223-3.53641h.06074a21.87713,21.87713,0,0,1,11.94915,3.5794l.04636.02912c2.52581,1.59833,5.24913,3.17871,7.88292,4.70706l2.26259,1.31326a21.21823,21.21823,0,0,1,10.989,18.87511c-.01492,3.65595-.00959,11.66426-.00461,19.409.0023,3.56448.00461,7.00126.00461,9.78549.01119.3856.01794.79872,0,1.2312v47.13929a44.87311,44.87311,0,0,1-22.35274,38.74253L115.52032,185.1778A44.79763,44.79763,0,0,1,93.12033,191.18887Zm.1682-176.7895a37.567,37.567,0,0,0-18.73675,5.02036L33.64221,43.03742A37.5897,37.5897,0,0,0,14.89836,75.51365v47.359a37.598,37.598,0,0,0,18.72875,32.45367l40.735,23.55357a37.46712,37.46712,0,0,0,37.51631.00035l40.74012-23.55676a37.59819,37.59819,0,0,0,18.724-32.4535V75.563l.00462-.09129c.01226-.24457.005-.54225-.003-.80209l-.0016-.11012c0-2.79223-.0023-6.24872-.00461-9.83452-.005-7.75309-.01031-15.77011.00461-19.45465a14.12234,14.12234,0,0,0-7.36163-12.53972l-2.2665-1.31556c-2.68033-1.55535-5.4516-3.16362-8.08451-4.82837l-.13125-.08259a14.61807,14.61807,0,0,0-8.03088-2.42191H145.427a14.62041,14.62041,0,0,0-8.00405,2.37822l-.06625.04209c-1.60277.99587-3.116,1.92567-4.62624,2.84267l-1.8532,1.125-18.65825-10.916A37.554,37.554,0,0,0,93.28853,14.39937Z"/><path class="cls-1" d="M174.98,74.55958c0-8.70449-.02183-23.86187,0-29.27444a17.66367,17.66367,0,0,0-9.17736-15.703L163.54011,28.269c-2.80814-1.62959-5.45622-3.16825-8.00246-4.77965l-.03637-.02182a18.2965,18.2965,0,0,0-20.06434-.05457c-1.52775.94939-3.04821,1.88422-4.59414,2.82269l-16.787-9.8212a41.04272,41.04272,0,0,0-41.32177-.1455L31.82348,39.88712A41.22718,41.22718,0,0,0,11.2608,75.509v47.36362a41.23479,41.23479,0,0,0,20.54085,35.6l40.73963,23.55632a41.10463,41.10463,0,0,0,41.15808,0l40.73977-23.55632A41.23641,41.23641,0,0,0,174.98,122.87622V75.65445C174.99817,75.29071,174.99089,74.92332,174.98,74.55958Z"/><path class="cls-4" d="M160.0738,84.54319V74.78383c0-9.8212-.02182-24.26926,0-29.60181a2.83473,2.83473,0,0,0-1.74962-2.69886c-3.612-2.10974-7.24223-4.16492-10.767-6.402a3.4665,3.4665,0,0,0-4.2413,0c-4.0958,2.54624-8.22433,5.02336-12.36743,7.4967l-24.422-14.3097a26.18977,26.18977,0,0,0-26.34626-.08366l-40.91084,23.618A26.19035,26.19035,0,0,0,26.17443,75.49678v47.37453a26.1888,26.1888,0,0,0,13.09493,22.687l40.73988,23.56a26.22232,26.22232,0,0,0,26.23349,0l40.73978-23.55632a26.21075,26.21075,0,0,0,13.09492-22.687V84.54319Z"/><path class="cls-5" d="M93.27876,25.67422a26.21206,26.21206,0,0,1,13.2477,3.59383l24.42931,14.30984c4.13218-2.47349,8.26073-4.95425,12.36743-7.49684a4.02218,4.02218,0,0,1,2.12793-.7275,3.93317,3.93317,0,0,1,2.11338.7275c3.52471,2.23705,7.15492,4.29222,10.76694,6.402a2.81915,2.81915,0,0,1,1.74962,2.699c-.03273,5.33255-.02546,19.777,0,29.60181V122.875a26.21075,26.21075,0,0,1-13.09492,22.687l-40.73977,23.55632a26.21539,26.21539,0,0,1-26.23351,0l-40.73988-23.56a26.19,26.19,0,0,1-13.09492-22.687V75.50769A26.18921,26.18921,0,0,1,39.273,52.81345L80.1802,29.18438a26.15617,26.15617,0,0,1,13.09492-3.51016Zm-.00364-4.365A30.59465,30.59465,0,0,0,77.99771,25.405L37.08687,49.01956A30.66351,30.66351,0,0,0,21.80945,75.49678v47.37453a30.65684,30.65684,0,0,0,15.27742,26.4663l40.73988,23.55995a30.55368,30.55368,0,0,0,30.59847,0L149.165,149.34125a30.65769,30.65769,0,0,0,15.27742-26.46266V75.65318c0-.30918,0-.62564-.01818-.93846,0-8.70086-.02183-24.00737,0-29.5036a7.103,7.103,0,0,0-3.89938-6.50745q-1.124-.65841-2.25524-1.30949c-2.77176-1.61141-5.64173-3.27374-8.36621-4.9979a7.78058,7.78058,0,0,0-8.88636-.02183c-3.30647,2.05518-6.57293,4.03033-10.07581,6.12916L108.7526,25.50325a30.6,30.6,0,0,0-15.47384-4.194Z"/><polygon class="cls-6" points="146.261 43.564 148.974 51.922 157.331 54.634 148.974 57.347 146.261 65.704 143.548 57.347 135.191 54.634 143.548 51.922 146.261 43.564"/><path class="cls-7" d="M142.881,58.90412a2.11054,2.11054,0,0,0-1.30545-2.01469c-2.69573-1.57349-5.40193-3.1051-8.03089-4.774a2.58428,2.58428,0,0,0-3.16141,0c-3.05441,1.89739-6.13438,3.74636-9.21645,5.59235L102.94713,47.03508a19.54292,19.54292,0,0,0-19.64843-.06243L52.78877,64.58529a19.543,19.543,0,0,0-9.77248,16.92525v35.33293a19.54285,19.54285,0,0,0,9.76245,16.91941L83.17066,151.3315a19.54324,19.54324,0,0,0,19.56226-.00067l30.38663-17.56773a19.543,19.543,0,0,0,9.76157-16.919S142.85412,62.881,142.881,58.90412Z"/><path class="cls-5" d="M102.24636,48.07357a61.40736,61.40736,0,0,0-9.92773-.78027h-.002a55.19333,55.19333,0,0,0-9.17773.78808c-9.00586,1.5918-12.84863,5.77442-12.84863,13.98731V65.929h-1.543c-7.72559,0-13.91016,4.97461-15.75489,12.668a37.33921,37.33921,0,0,0,0,20.06152c1.90625,7.93457,7.18848,12.67188,14.12891,12.67188H78.11648V98.36458a6.09376,6.09376,0,0,1,5.89258-5.832h17.416A13.805,13.805,0,0,0,115.14285,78.6722V62.06869C115.14285,55.20541,109.72,49.31966,102.24636,48.07357Z"/><g id="path1950"><path class="cls-5" d="M112.31762,70.92919V78.6719a11.18312,11.18312,0,0,1-10.89268,11.05525H84.00888a8.89474,8.89474,0,0,0-8.71823,8.86079v16.60324c0,4.72488,4.10891,7.50522,8.71823,8.86046a29.16729,29.16729,0,0,0,17.41606,0c4.38959-1.27142,8.71824-3.82948,8.71824-8.86046V108.5458H92.72706v-2.21508h26.1343c5.06786,0,6.9559-3.53482,8.71824-8.84018,1.82073-5.46188,1.74328-10.71456,0-17.72125-1.25237-5.04431-3.644-8.8401-8.71824-8.8401ZM102.52234,112.976a3.32308,3.32308,0,1,1-3.27184,3.31254A3.29081,3.29081,0,0,1,102.52234,112.976Z"/><path class="cls-5" d="M92.68581,130.38314A35.34385,35.34385,0,0,1,82.5989,128.849c-7.82227-2.2998-12.30859-7.27832-12.30859-13.6582V98.58822A13.97515,13.97515,0,0,1,84.00906,84.72689h17.416a6.21126,6.21126,0,0,0,5.89258-6.05469V65.929H118.8616c4.75976,0,10.97851,2.19238,13.57031,12.63574,2.01562,8.09961,1.98242,14.2334-.10938,20.50781-1.31933,3.97461-4.07031,12.25782-13.46093,12.25782h-3.71875v3.86035c0,3.76953-1.60157,10.55761-12.32715,13.66406A35.998,35.998,0,0,1,92.68581,130.38314ZM84.00906,94.72689a3.8913,3.8913,0,0,0-3.71875,3.86133v16.60254c0,2.30664,3.58691,3.61132,5.1289,4.06445a24.32582,24.32582,0,0,0,9.81739.97656,8.36705,8.36705,0,0,1-.52344-6.68554H87.72683V101.33041H118.8616c1.26269,0,2.1748,0,3.97265-5.415,1.46875-4.40528,1.4375-8.73243-.10742-14.93946-1.252-5.04687-2.8877-5.04687-3.86523-5.04687h-1.54395V78.6722a16.18877,16.18877,0,0,1-15.89258,16.05469Z"/></g><path class="cls-8" d="M92.341,52.29373a49.78928,49.78928,0,0,0-8.33209.71131c-7.37821,1.30374-8.71823,4.032-8.71823,9.06369V68.714H92.72706v2.21515H68.74691a10.88729,10.88729,0,0,0-10.89268,8.8401,32.59152,32.59152,0,0,0,0,17.72125c1.23969,5.16183,4.1997,8.84018,9.26691,8.84018h5.99507V98.36443A11.08082,11.08082,0,0,1,84.00888,87.53236h17.41606a8.78447,8.78447,0,0,0,8.71824-8.86046V62.06873c0-4.725-3.98632-8.27493-8.71824-9.06369A54.37379,54.37379,0,0,0,92.341,52.29373Zm-9.42948,5.34476a3.32305,3.32305,0,1,1-3.2719,3.33284A3.30836,3.30836,0,0,1,82.91149,57.63849Z" id="path1948"/><path class="cls-9" d="M112.31762,70.92919V78.6719a11.18312,11.18312,0,0,1-10.89268,11.05525H84.00888a8.89474,8.89474,0,0,0-8.71823,8.86079v16.60324c0,4.72488,4.10891,7.50522,8.71823,8.86046a29.16729,29.16729,0,0,0,17.41606,0c4.38959-1.27142,8.71824-3.82948,8.71824-8.86046V108.5458H92.72706v-2.21508h26.1343c5.06786,0,6.9559-3.53482,8.71824-8.84018,1.82073-5.46188,1.74328-10.71456,0-17.72125-1.25237-5.04431-3.644-8.8401-8.71824-8.8401ZM102.52234,112.976a3.32308,3.32308,0,1,1-3.27184,3.31254A3.29081,3.29081,0,0,1,102.52234,112.976Z" data-name="path1950" id="path1950-2"/><path class="cls-5" d="M82.00339,150.6169l4.07651,3.48968a1.4389,1.4389,0,0,1,.46434,1.42436l-1.24774,5.21885a1.42439,1.42439,0,0,0,2.14509,1.56109l4.58073-2.80029a1.42371,1.42371,0,0,1,1.49843,0l4.57789,2.80029a1.42443,1.42443,0,0,0,2.14793-1.56109l-1.24774-5.21885a1.4389,1.4389,0,0,1,.46434-1.42436l4.07651-3.48968a1.42439,1.42439,0,0,0-.82042-2.524l-5.3499-.4273a1.43869,1.43869,0,0,1-1.21355-.88026L94.099,141.82861a1.42428,1.42428,0,0,0-2.655,0l-2.05962,4.95677a1.42537,1.42537,0,0,1-1.2107.88026l-5.34989.4273a1.42439,1.42439,0,0,0-.82043,2.524Z"/><path class="cls-6" d="M82.00339,146.82714l4.07651,3.48968a1.4389,1.4389,0,0,1,.46434,1.42436L85.2965,156.96a1.42439,1.42439,0,0,0,2.14509,1.56109l4.58073-2.80029a1.42371,1.42371,0,0,1,1.49843,0l4.57789,2.80029a1.42443,1.42443,0,0,0,2.14793-1.56109l-1.24774-5.21885a1.4389,1.4389,0,0,1,.46434-1.42436l4.07651-3.48968a1.42439,1.42439,0,0,0-.82042-2.524l-5.3499-.4273a1.43869,1.43869,0,0,1-1.21355-.88026L94.099,138.03885a1.42428,1.42428,0,0,0-2.655,0l-2.05962,4.95677a1.42537,1.42537,0,0,1-1.2107.88026l-5.34989.4273a1.42439,1.42439,0,0,0-.82043,2.524Z"/><path class="cls-10" d="M98.8667,159.60209a2.26679,2.26679,0,0,1-1.23073-.36249l-4.56129-2.78973a.57432.57432,0,0,0-.60312-.00223l-4.5841,2.80254a2.27875,2.27875,0,0,1-3.41763-2.50682l1.24312-5.20085a.584.584,0,0,0-.18876-.57642l-4.07041-3.4844a2.27892,2.27892,0,0,1,1.321-4.0316l5.33091-.42591a.57176.57176,0,0,0,.488-.35275l2.06114-4.9605a2.25309,2.25309,0,0,1,.82986-1.03683,2.31441,2.31441,0,0,1,2.57261-.00084,2.273,2.273,0,0,1,.8382,1.056l2.04946,4.9388a.58472.58472,0,0,0,.49268.35609l5.34969.4273a2.27828,2.27828,0,0,1,1.29333,4.03689l-4.06165,3.47772a.58044.58044,0,0,0-.17526.26206.58718.58718,0,0,0-.01335.316l1.24742,5.21726a2.27826,2.27826,0,0,1-2.14432,2.83982ZM92.77159,154.653a2.27835,2.27835,0,0,1,1.19832.34079l4.57464,2.79809a.57673.57673,0,0,0,.34023.1007.56984.56984,0,0,0,.53553-.7144l-1.25271-5.23841a2.295,2.295,0,0,1,.73972-2.2723l4.07639-3.48967a.58407.58407,0,0,0,.2003-.29239.56947.56947,0,0,0-.51383-.72887l-5.36888-.4287a2.29445,2.29445,0,0,1-1.93457-1.40349l-2.057-4.958a.5889.5889,0,0,0-.217-.28209.58066.58066,0,0,0-.64361.00083.566.566,0,0,0-.20851.26318l-2.067,4.97524a2.27988,2.27988,0,0,1-1.93513,1.4046l-5.34677.427a.58769.58769,0,0,0-.33411.11907.56982.56982,0,0,0-.01293.89161l.01446.012,4.07653,3.48967a2.29371,2.29371,0,0,1,.74,2.27091l-1.248,5.22033a.58477.58477,0,0,0,.00987.35386.57.57,0,0,0,.51953.37779.55341.55341,0,0,0,.32438-.08958l4.59494-2.80921A2.27643,2.27643,0,0,1,92.77159,154.653Z"/></svg>