<?xml version="1.0" encoding="utf-8"?><svg xmlns="http://www.w3.org/2000/svg" data-name="Layer 1" id="Layer_1" viewBox="0 0 185.8974 243.25596" xmlns:openbadges="http://openbadges.org"><openbadges:assertion verify="https://api.badgr.io/public/assertions/mfqgIISmROqq8W386M-Jkw"><![CDATA[{
  "@context": "https://w3id.org/openbadges/v2",
  "type": "Assertion",
  "id": "https://api.badgr.io/public/assertions/mfqgIISmROqq8W386M-Jkw",
  "badge": "https://api.badgr.io/public/badges/n9ox20fxRcucNyT53jonvA",
  "image": "https://api.badgr.io/public/assertions/mfqgIISmROqq8W386M-Jkw/image",
  "verification": {
    "type": "HostedBadge"
  },
  "issuedOn": "2022-06-30T22:55:33.921232+00:00",
  "expires": "2024-06-30T22:55:33.286000+00:00",
  "recipient": {
    "hashed": true,
    "type": "email",
    "identity": "sha256$359a082b9815377c74b0fd3b89d56f475bed0951ec5d97939e7802d871f41a75",
    "salt": "185fa99994a24f53bc4b1b5f6b398e2a"
  }
}]]></openbadges:assertion><defs><style>.cls-1{fill:#ffc329;}.cls-2,.cls-3{fill:#ff7a00;}.cls-2{fill-rule:evenodd;}.cls-4{fill:#1e415e;}.cls-5,.cls-6{fill:#0a2535;}.cls-6{opacity:0.25;}.cls-7{fill:url(#linear-gradient);}.cls-8{fill:url(#linear-gradient-2);}.cls-9{fill:#fff;}.cls-10{fill:#03151e;}</style><linearGradient gradientUnits="userSpaceOnUse" id="linear-gradient" x1="56.98114" x2="110.49764" y1="79.31192" y2="79.31192"><stop offset="0" stop-color="#5a9fd4"/><stop offset="1" stop-color="#306998"/></linearGradient><linearGradient gradientUnits="userSpaceOnUse" id="linear-gradient-2" x1="75.6451" x2="129.27072" y1="98.15525" y2="98.15525"><stop offset="0" stop-color="#ffd43b"/><stop offset="1" stop-color="#ffe873"/></linearGradient></defs><path class="cls-1" d="M54.24839,123.62918a4.72831,4.72831,0,0,1,6.45289-1.7278l44.46091,25.69152a4.72892,4.72892,0,0,1,1.7278,6.45652L59.96651,235.41619a4.72881,4.72881,0,0,1-8.55535-.82207l-8.428-24.37111a4.72865,4.72865,0,0,0-5.358-3.09912L12.301,211.9981a4.72873,4.72873,0,0,1-4.987-6.99487Z"/><path class="cls-1" d="M79.25607,153.99485a4.72832,4.72832,0,0,1,1.73143-6.4638l44.48275-25.63332a4.72872,4.72872,0,0,1,6.46016,1.72781l47.01079,81.32312a4.729,4.729,0,0,1-4.987,6.99489l-25.33506-4.89241a4.72884,4.72884,0,0,0-5.36528,3.09185l-8.42077,24.37112a4.72881,4.72881,0,0,1-8.56263.81479Z"/><path class="cls-2" d="M81.60224,197.88468a31.78127,31.78127,0,0,1-4.33224-2.077L28.76792,167.79909,54.2302,123.62918a4.72832,4.72832,0,0,1,6.4529-1.7278L105.144,147.5929a4.72892,4.72892,0,0,1,1.7278,6.45652Z"/><path class="cls-2" d="M157.41822,167.71907l-48.64037,28.0886a31.28255,31.28255,0,0,1-4.17946,2.01882L79.25607,153.99485a4.72832,4.72832,0,0,1,1.73143-6.4638l44.48275-25.63332a4.72872,4.72872,0,0,1,6.46016,1.72781Z"/><path class="cls-3" d="M93.12033,191.18887A44.79823,44.79823,0,0,1,70.72,185.17762L29.98093,161.62138A44.87193,44.87193,0,0,1,7.6234,122.87832V75.509A44.86476,44.86476,0,0,1,30.00029,36.7395L70.91554,13.11861a44.68078,44.68078,0,0,1,44.98025.15808l14.908,8.722c.87491-.53657,1.763-1.08485,2.68069-1.655a21.87836,21.87836,0,0,1,11.94223-3.53641h.06074a21.87713,21.87713,0,0,1,11.94915,3.5794l.04636.02912c2.52581,1.59833,5.24913,3.17871,7.88292,4.70706l2.26259,1.31326a21.21823,21.21823,0,0,1,10.989,18.87511c-.01492,3.65595-.00959,11.66426-.00461,19.409.0023,3.56448.00461,7.00126.00461,9.78549.01119.3856.01794.79872,0,1.2312v47.13929a44.87311,44.87311,0,0,1-22.35274,38.74253L115.52032,185.1778A44.79763,44.79763,0,0,1,93.12033,191.18887Zm.1682-176.7895a37.567,37.567,0,0,0-18.73675,5.02036L33.64221,43.03742A37.5897,37.5897,0,0,0,14.89836,75.51365v47.359a37.598,37.598,0,0,0,18.72875,32.45367l40.735,23.55357a37.46712,37.46712,0,0,0,37.51631.00035l40.74012-23.55676a37.59819,37.59819,0,0,0,18.724-32.4535V75.563l.00462-.09129c.01226-.24457.005-.54225-.003-.80209l-.0016-.11012c0-2.79223-.0023-6.24872-.00461-9.83452-.005-7.75309-.01031-15.77011.00461-19.45465a14.12234,14.12234,0,0,0-7.36163-12.53972l-2.2665-1.31556c-2.68033-1.55535-5.4516-3.16362-8.08451-4.82837l-.13125-.08259a14.61807,14.61807,0,0,0-8.03088-2.42191H145.427a14.62041,14.62041,0,0,0-8.00405,2.37822l-.06625.04209c-1.60277.99587-3.116,1.92567-4.62624,2.84267l-1.8532,1.125-18.65825-10.916A37.554,37.554,0,0,0,93.28853,14.39937Z"/><path class="cls-1" d="M174.98,74.55958c0-8.70449-.02183-23.86187,0-29.27444a17.66367,17.66367,0,0,0-9.17736-15.703L163.54011,28.269c-2.80814-1.62959-5.45622-3.16825-8.00246-4.77965l-.03637-.02182a18.2965,18.2965,0,0,0-20.06434-.05457c-1.52775.94939-3.04821,1.88422-4.59414,2.82269l-16.787-9.8212a41.04272,41.04272,0,0,0-41.32177-.1455L31.82348,39.88712A41.22718,41.22718,0,0,0,11.2608,75.509v47.36362a41.23479,41.23479,0,0,0,20.54085,35.6l40.73963,23.55632a41.10463,41.10463,0,0,0,41.15808,0l40.73977-23.55632A41.23641,41.23641,0,0,0,174.98,122.87622V75.65445C174.99817,75.29071,174.99089,74.92332,174.98,74.55958Z"/><path class="cls-4" d="M160.0738,84.54319V74.78383c0-9.8212-.02182-24.26926,0-29.60181a2.83473,2.83473,0,0,0-1.74962-2.69886c-3.612-2.10974-7.24223-4.16492-10.767-6.402a3.4665,3.4665,0,0,0-4.2413,0c-4.0958,2.54624-8.22433,5.02336-12.36743,7.4967l-24.422-14.3097a26.18977,26.18977,0,0,0-26.34626-.08366l-40.91084,23.618A26.19035,26.19035,0,0,0,26.17443,75.49678v47.37453a26.1888,26.1888,0,0,0,13.09493,22.687l40.73988,23.56a26.22232,26.22232,0,0,0,26.23349,0l40.73978-23.55632a26.21075,26.21075,0,0,0,13.09492-22.687V84.54319Z"/><path class="cls-5" d="M93.27876,25.67422a26.21206,26.21206,0,0,1,13.2477,3.59383l24.42931,14.30984c4.13218-2.47349,8.26073-4.95425,12.36743-7.49684a4.02218,4.02218,0,0,1,2.12793-.7275,3.93317,3.93317,0,0,1,2.11338.7275c3.52471,2.23705,7.15492,4.29222,10.76694,6.402a2.81915,2.81915,0,0,1,1.74962,2.699c-.03273,5.33255-.02546,19.777,0,29.60181V122.875a26.21075,26.21075,0,0,1-13.09492,22.687l-40.73977,23.55632a26.21539,26.21539,0,0,1-26.23351,0l-40.73988-23.56a26.19,26.19,0,0,1-13.09492-22.687V75.50769A26.18921,26.18921,0,0,1,39.273,52.81345L80.1802,29.18438a26.15617,26.15617,0,0,1,13.09492-3.51016Zm-.00364-4.365A30.59465,30.59465,0,0,0,77.99771,25.405L37.08687,49.01956A30.66351,30.66351,0,0,0,21.80945,75.49678v47.37453a30.65684,30.65684,0,0,0,15.27742,26.4663l40.73988,23.55995a30.55368,30.55368,0,0,0,30.59847,0L149.165,149.34125a30.65769,30.65769,0,0,0,15.27742-26.46266V75.65318c0-.30918,0-.62564-.01818-.93846,0-8.70086-.02183-24.00737,0-29.5036a7.103,7.103,0,0,0-3.89938-6.50745q-1.124-.65841-2.25524-1.30949c-2.77176-1.61141-5.64173-3.27374-8.36621-4.9979a7.78058,7.78058,0,0,0-8.88636-.02183c-3.30647,2.05518-6.57293,4.03033-10.07581,6.12916L108.7526,25.50325a30.6,30.6,0,0,0-15.47384-4.194Z"/><path class="cls-6" d="M142.881,58.90412a2.11054,2.11054,0,0,0-1.30545-2.01469c-2.69573-1.57349-5.40193-3.1051-8.03089-4.774a2.58428,2.58428,0,0,0-3.16141,0c-3.05441,1.89739-6.13438,3.74636-9.21645,5.59235L102.94713,47.03508a19.54292,19.54292,0,0,0-19.64843-.06243L52.78877,64.58529a19.543,19.543,0,0,0-9.77248,16.92525v35.33293a19.54285,19.54285,0,0,0,9.76245,16.91941L83.17066,151.3315a19.54324,19.54324,0,0,0,19.56226-.00067l30.38663-17.56773a19.543,19.543,0,0,0,9.76157-16.919S142.85412,62.881,142.881,58.90412Z"/><path class="cls-5" d="M132.78891,78.56379c-2.5918-10.44336-8.81055-12.63575-13.57032-12.63575h-3.71875V62.06769c0-6.86328-5.42285-12.749-12.89648-13.99511a61.40735,61.40735,0,0,0-9.92773-.78028h-.002a55.19428,55.19428,0,0,0-9.17773.78809C74.49008,49.67218,70.6473,53.8548,70.6473,62.06769V65.928h-1.543c-7.72559,0-13.91016,4.97461-15.75489,12.668a37.33924,37.33924,0,0,0,0,20.06153c1.90625,7.93457,7.18848,12.67187,14.12891,12.67187H70.6473v3.86035c0,6.37989,4.48633,11.3584,12.3086,13.65821a35.34415,35.34415,0,0,0,10.08691,1.53418,35.998,35.998,0,0,0,10.12989-1.52832c10.72558-3.10645,12.32714-9.89454,12.32714-13.66407v-3.86035h3.71875c9.39063,0,12.14161-8.2832,13.46094-12.25781C134.77133,92.79718,134.80453,86.6634,132.78891,78.56379Z"/><path class="cls-7" d="M92.69543,52.29373a49.78919,49.78919,0,0,0-8.33209.71131c-7.37821,1.30374-8.71824,4.032-8.71824,9.06369V68.714H93.08151v2.21515H69.10137a10.88729,10.88729,0,0,0-10.89268,8.8401,32.59133,32.59133,0,0,0,0,17.72125c1.23968,5.16183,4.19969,8.84018,9.2669,8.84018h5.99507V98.36443A11.08083,11.08083,0,0,1,84.36334,87.53236H101.7794a8.78447,8.78447,0,0,0,8.71824-8.86046V62.06873c0-4.725-3.98633-8.27493-8.71824-9.06369A54.37387,54.37387,0,0,0,92.69543,52.29373Zm-9.42949,5.34476a3.32305,3.32305,0,1,1-3.2719,3.33284A3.30837,3.30837,0,0,1,83.26594,57.63849Z" id="path1948"/><path class="cls-8" d="M112.67208,70.92919V78.6719A11.18313,11.18313,0,0,1,101.7794,89.72715H84.36334a8.89475,8.89475,0,0,0-8.71824,8.86079v16.60324c0,4.72488,4.10891,7.50522,8.71824,8.86046a29.16729,29.16729,0,0,0,17.41606,0c4.38959-1.27142,8.71824-3.82948,8.71824-8.86046V108.5458H93.08151v-2.21508h26.1343c5.06786,0,6.9559-3.53482,8.71824-8.84018,1.82074-5.46188,1.74328-10.71456,0-17.72125-1.25236-5.04431-3.644-8.8401-8.71824-8.8401ZM102.8768,112.976a3.32308,3.32308,0,1,1-3.27184,3.31254A3.29081,3.29081,0,0,1,102.8768,112.976Z" id="path1950"/><polygon class="cls-9" points="146.261 43.564 148.974 51.922 157.331 54.634 148.974 57.347 146.261 65.704 143.548 57.347 135.191 54.634 143.548 51.922 146.261 43.564"/><path class="cls-5" d="M65.3304,145.6169l4.07651,3.48968a1.4389,1.4389,0,0,1,.46434,1.42436l-1.24774,5.21885a1.42439,1.42439,0,0,0,2.14509,1.56109l4.58073-2.80029a1.42371,1.42371,0,0,1,1.49843,0l4.57789,2.80029a1.42443,1.42443,0,0,0,2.14792-1.56109l-1.24774-5.21885a1.43893,1.43893,0,0,1,.46435-1.42436l4.07651-3.48968a1.42439,1.42439,0,0,0-.82042-2.524l-5.3499-.4273a1.43866,1.43866,0,0,1-1.21355-.88026l-2.05677-4.95677a1.42427,1.42427,0,0,0-2.655,0l-2.05962,4.95677a1.42541,1.42541,0,0,1-1.2107.88026l-5.34989.4273a1.42438,1.42438,0,0,0-.82043,2.524Z"/><path class="cls-9" d="M65.3304,141.82714l4.07651,3.48968a1.4389,1.4389,0,0,1,.46434,1.42436L68.62351,151.96a1.42439,1.42439,0,0,0,2.14509,1.56109l4.58073-2.80029a1.42371,1.42371,0,0,1,1.49843,0l4.57789,2.80029A1.42443,1.42443,0,0,0,83.57357,151.96l-1.24774-5.21885a1.43893,1.43893,0,0,1,.46435-1.42436l4.07651-3.48968a1.42439,1.42439,0,0,0-.82042-2.524l-5.3499-.4273a1.43866,1.43866,0,0,1-1.21355-.88026l-2.05677-4.95677a1.42427,1.42427,0,0,0-2.655,0l-2.05962,4.95677a1.42541,1.42541,0,0,1-1.2107.88026l-5.34989.4273a1.42438,1.42438,0,0,0-.82043,2.524Z"/><path class="cls-10" d="M82.19371,154.60209a2.26682,2.26682,0,0,1-1.23074-.36249l-4.56128-2.78973a.57434.57434,0,0,0-.60313-.00223l-4.58409,2.80254a2.27875,2.27875,0,0,1-3.41763-2.50682L69.04,146.54251a.584.584,0,0,0-.18876-.57642l-4.07041-3.4844a2.27892,2.27892,0,0,1,1.321-4.0316l5.33091-.42591a.57176.57176,0,0,0,.488-.35275l2.06114-4.9605a2.25309,2.25309,0,0,1,.82986-1.03683,2.31441,2.31441,0,0,1,2.57261-.00084,2.273,2.273,0,0,1,.8382,1.056l2.04946,4.9388a.58472.58472,0,0,0,.49268.35609l5.34969.4273a2.27828,2.27828,0,0,1,1.29333,4.03689L83.346,145.96609a.58044.58044,0,0,0-.17526.26206.58718.58718,0,0,0-.01335.316l1.24742,5.21726a2.27826,2.27826,0,0,1-2.14432,2.83982ZM76.0986,149.653a2.27835,2.27835,0,0,1,1.19832.34079l4.57464,2.79809a.57671.57671,0,0,0,.34023.1007.56984.56984,0,0,0,.53553-.7144l-1.25271-5.23841a2.2949,2.2949,0,0,1,.73972-2.2723l4.07639-3.48967a.58413.58413,0,0,0,.2003-.29239.56947.56947,0,0,0-.51383-.72887l-5.36888-.4287a2.29445,2.29445,0,0,1-1.93457-1.40349l-2.057-4.958a.589.589,0,0,0-.217-.28209.58064.58064,0,0,0-.6436.00083.566.566,0,0,0-.20851.26318l-2.067,4.97524a2.27984,2.27984,0,0,1-1.93512,1.4046l-5.34677.427a.58769.58769,0,0,0-.33411.11907.56983.56983,0,0,0-.01294.89161l.01447.012,4.07653,3.48967a2.29371,2.29371,0,0,1,.74,2.27091l-1.248,5.22033a.58469.58469,0,0,0,.00987.35386.57.57,0,0,0,.51953.37779.55341.55341,0,0,0,.32438-.08958l4.59494-2.80921A2.27638,2.27638,0,0,1,76.0986,149.653Z"/><path class="cls-5" d="M99.03084,145.6169l4.07651,3.48968a1.4389,1.4389,0,0,1,.46434,1.42436l-1.24774,5.21885a1.42439,1.42439,0,0,0,2.14509,1.56109l4.58073-2.80029a1.42371,1.42371,0,0,1,1.49843,0l4.57789,2.80029a1.42443,1.42443,0,0,0,2.14793-1.56109l-1.24774-5.21885a1.4389,1.4389,0,0,1,.46434-1.42436l4.07651-3.48968a1.42439,1.42439,0,0,0-.82042-2.524l-5.3499-.4273a1.43866,1.43866,0,0,1-1.21355-.88026l-2.05677-4.95677a1.42427,1.42427,0,0,0-2.655,0l-2.05962,4.95677a1.42537,1.42537,0,0,1-1.2107.88026l-5.34989.4273a1.42439,1.42439,0,0,0-.82043,2.524Z"/><path class="cls-9" d="M99.03084,141.82714l4.07651,3.48968a1.4389,1.4389,0,0,1,.46434,1.42436L102.324,151.96a1.42439,1.42439,0,0,0,2.14509,1.56109l4.58073-2.80029a1.42371,1.42371,0,0,1,1.49843,0l4.57789,2.80029A1.42443,1.42443,0,0,0,117.274,151.96l-1.24774-5.21885a1.4389,1.4389,0,0,1,.46434-1.42436l4.07651-3.48968a1.42439,1.42439,0,0,0-.82042-2.524l-5.3499-.4273a1.43866,1.43866,0,0,1-1.21355-.88026l-2.05677-4.95677a1.42427,1.42427,0,0,0-2.655,0l-2.05962,4.95677a1.42537,1.42537,0,0,1-1.2107.88026l-5.34989.4273a1.42439,1.42439,0,0,0-.82043,2.524Z"/><path class="cls-10" d="M115.89415,154.60209a2.26676,2.26676,0,0,1-1.23073-.36249l-4.56129-2.78973a.57432.57432,0,0,0-.60312-.00223l-4.5841,2.80254a2.27875,2.27875,0,0,1-3.41763-2.50682l1.24312-5.20085a.584.584,0,0,0-.18876-.57642l-4.07041-3.4844a2.27892,2.27892,0,0,1,1.321-4.0316l5.33091-.42591a.57176.57176,0,0,0,.488-.35275l2.06114-4.9605a2.25309,2.25309,0,0,1,.82986-1.03683,2.31441,2.31441,0,0,1,2.57261-.00084,2.273,2.273,0,0,1,.8382,1.056l2.04946,4.9388a.58472.58472,0,0,0,.49268.35609l5.34969.4273a2.27828,2.27828,0,0,1,1.29333,4.03689l-4.06165,3.47772a.58044.58044,0,0,0-.17526.26206.58718.58718,0,0,0-.01335.316l1.24742,5.21726a2.27826,2.27826,0,0,1-2.14432,2.83982ZM109.799,149.653a2.27835,2.27835,0,0,1,1.19832.34079l4.57464,2.79809a.57671.57671,0,0,0,.34023.1007.56984.56984,0,0,0,.53553-.7144l-1.25271-5.23841a2.2949,2.2949,0,0,1,.73972-2.2723l4.07639-3.48967a.58413.58413,0,0,0,.2003-.29239.56947.56947,0,0,0-.51383-.72887l-5.36888-.4287a2.29445,2.29445,0,0,1-1.93457-1.40349l-2.057-4.958a.58892.58892,0,0,0-.217-.28209.58064.58064,0,0,0-.6436.00083.566.566,0,0,0-.20851.26318l-2.067,4.97524a2.27988,2.27988,0,0,1-1.93513,1.4046l-5.34677.427a.58769.58769,0,0,0-.33411.11907.56982.56982,0,0,0-.01293.89161l.01446.012,4.07653,3.48967a2.29371,2.29371,0,0,1,.74,2.27091l-1.248,5.22033a.58477.58477,0,0,0,.00987.35386.57.57,0,0,0,.51953.37779.55341.55341,0,0,0,.32438-.08958l4.59494-2.80921A2.27643,2.27643,0,0,1,109.799,149.653Z"/></svg>